<svg width="38" height="32" viewBox="0 0 38 32" fill="none" xmlns="http://www.w3.org/2000/svg">
<path d="M37.3267 17.6195L23.649 31.3296C23.2208 31.7588 22.6399 32 22.0343 32C21.4287 32 20.8478 31.7588 20.4196 31.3296C19.9913 30.9003 19.7507 30.3181 19.7507 29.711C19.7507 29.104 19.9913 28.5217 20.4196 28.0925L30.2048 18.2879H2.27961C1.67502 18.2879 1.09519 18.0471 0.667681 17.6186C0.240172 17.1901 0 16.6089 0 16.0029C0 15.3968 0.240172 14.8156 0.667681 14.3871C1.09519 13.9586 1.67502 13.7178 2.27961 13.7178H30.2048L20.4234 3.90753C19.9951 3.47826 19.7545 2.89605 19.7545 2.28898C19.7545 1.6819 19.9951 1.09969 20.4234 0.670425C20.8516 0.241159 21.4325 6.39656e-09 22.0381 0C22.6437 -6.39657e-09 23.2246 0.241159 23.6528 0.670425L37.3305 14.3805C37.543 14.5931 37.7116 14.8456 37.8265 15.1237C37.9414 15.4018 38.0004 15.6998 38 16.0008C37.9996 16.3018 37.94 16.5997 37.8244 16.8775C37.7089 17.1553 37.5397 17.4074 37.3267 17.6195Z" fill="#FFBAA4"/>
</svg>
