<svg width="22" height="16" viewBox="0 0 22 16" fill="none" xmlns="http://www.w3.org/2000/svg">
<path d="M21.6256 2.15755L8.09115 15.6286C7.97327 15.7463 7.8332 15.8397 7.67896 15.9034C7.52473 15.9672 7.35938 16 7.19238 16C7.02538 16 6.86002 15.9672 6.70579 15.9034C6.55156 15.8397 6.41149 15.7463 6.29361 15.6286L0.372284 9.73499C0.254255 9.61751 0.16063 9.47805 0.0967533 9.32456C0.0328768 9.17107 1.75876e-09 9.00657 0 8.84043C-1.75876e-09 8.6743 0.0328768 8.50979 0.0967533 8.3563C0.16063 8.20281 0.254255 8.06335 0.372284 7.94587C0.490312 7.8284 0.630432 7.73521 0.784644 7.67163C0.938855 7.60806 1.10414 7.57533 1.27106 7.57533C1.43797 7.57533 1.60326 7.60806 1.75747 7.67163C1.91168 7.73521 2.0518 7.8284 2.16983 7.94587L7.19344 12.9459L19.8302 0.370538C20.0685 0.133286 20.3918 0 20.7289 0C21.066 0 21.3893 0.133286 21.6277 0.370538C21.8661 0.60779 22 0.929572 22 1.2651C22 1.60062 21.8661 1.9224 21.6277 2.15966L21.6256 2.15755Z" fill="#E8E8E8"/>
</svg>
