<svg width="36" height="32" viewBox="0 0 36 32" fill="none" xmlns="http://www.w3.org/2000/svg">
<path d="M35.4994 0.350109C35.3001 0.178857 35.0578 0.0649627 34.7984 0.0206972C34.539 -0.0235683 34.2723 0.00347283 34.0272 0.0989072L1.45709 12.7886C0.995502 12.9673 0.604711 13.2905 0.343553 13.7094C0.0823954 14.1284 -0.0349928 14.6204 0.00906152 15.1115C0.0531158 15.6027 0.256228 16.0662 0.58782 16.4325C0.919411 16.7987 1.36153 17.0478 1.84763 17.1423L10.2867 18.7919V28.16C10.285 28.6702 10.4373 29.1692 10.7239 29.5923C11.0104 30.0154 11.418 30.343 11.8938 30.5328C12.3689 30.7259 12.8913 30.7723 13.3932 30.6658C13.895 30.5594 14.3531 30.3051 14.7079 29.936L18.7771 25.7343L25.233 31.36C25.6988 31.7713 26.2995 31.9989 26.9221 32C27.1949 31.9998 27.466 31.9571 27.7257 31.8736C28.1499 31.7396 28.5314 31.4973 28.8323 31.1708C29.1331 30.8443 29.3428 30.4451 29.4405 30.0128L35.9638 1.75972C36.0222 1.50492 36.0098 1.23911 35.9279 0.990788C35.8461 0.742466 35.698 0.520993 35.4994 0.350109ZM25.6734 6.11016L11.2751 16.3759L3.30369 14.819L25.6734 6.11016ZM12.8581 28.16V20.5631L16.8422 24.0415L12.8581 28.16ZM26.9253 29.44L13.6375 17.8399L32.7624 4.19334L26.9253 29.44Z" fill="#E8E8E8"/>
</svg>
