<svg width="31" height="31" viewBox="0 0 31 31" fill="none" xmlns="http://www.w3.org/2000/svg">
<path d="M30.5871 28.5933C30.718 28.7243 30.8218 28.8797 30.8927 29.0507C30.9635 29.2218 31 29.4051 31 29.5902C31 29.7753 30.9635 29.9587 30.8927 30.1297C30.8218 30.3008 30.718 30.4562 30.5871 30.5871C30.4562 30.718 30.3008 30.8218 30.1297 30.8927C29.9587 30.9635 29.7753 31 29.5902 31C29.4051 31 29.2217 30.9635 29.0507 30.8927C28.8796 30.8218 28.7242 30.718 28.5933 30.5871L15.5 17.4921L2.40668 30.5871C2.14229 30.8515 1.78371 31 1.4098 31C1.0359 31 0.677311 30.8515 0.412922 30.5871C0.148532 30.3227 7.37052e-09 29.9641 0 29.5902C-7.37052e-09 29.2163 0.148532 28.8577 0.412922 28.5933L14.5031 14.5033C14.634 14.3723 14.7894 14.2684 14.9604 14.1975C15.1315 14.1265 15.3148 14.09 15.5 14.09C15.6852 14.09 15.8685 14.1265 16.0396 14.1975C16.2106 14.2684 16.366 14.3723 16.4969 14.5033L30.5871 28.5933ZM2.40668 16.497L15.5 3.40209L28.5933 16.497C28.7242 16.6279 28.8796 16.7318 29.0507 16.8026C29.2217 16.8735 29.4051 16.91 29.5902 16.91C29.7753 16.91 29.9587 16.8735 30.1297 16.8026C30.3008 16.7318 30.4562 16.6279 30.5871 16.497C30.718 16.3661 30.8218 16.2107 30.8927 16.0397C30.9635 15.8686 31 15.6853 31 15.5002C31 15.315 30.9635 15.1317 30.8927 14.9607C30.8218 14.7896 30.718 14.6342 30.5871 14.5033L16.4969 0.413242C16.366 0.282238 16.2106 0.178311 16.0396 0.107404C15.8685 0.036497 15.6852 0 15.5 0C15.3148 0 15.1315 0.036497 14.9604 0.107404C14.7894 0.178311 14.634 0.282238 14.5031 0.413242L0.412922 14.5033C0.148532 14.7677 -2.78579e-09 15.1263 0 15.5002C2.7858e-09 15.8741 0.148532 16.2326 0.412922 16.497C0.677311 16.7614 1.0359 16.91 1.4098 16.91C1.78371 16.91 2.14229 16.7614 2.40668 16.497Z" fill="#0C0C0C"/>
</svg>
